0
SECTION
2
HEADER
9
$INSUNITS
70
4
9
$ACADVER
1
AC1014
9
$HANDSEED
5
FFFF
0
ENDSEC
0
SECTION
2
TABLES
0
TABLE
2
VPORT
5
8
100
AcDbSymbolTable
0
ENDTAB
0
TABLE
2
LTYPE
5
5
100
AcDbSymbolTable
0
LTYPE
5
14
100
AcDbSymbolTableRecord
100
AcDbLinetypeTableRecord
2
BYBLOCK
70
0
0
LTYPE
5
15
100
AcDbSymbolTableRecord
100
AcDbLinetypeTableRecord
2
BYLAYER
70
0
0
ENDTAB
0
TABLE
2
LAYER
5
2
100
AcDbSymbolTable
70
2
0
LAYER
5
50
100
AcDbSymbolTableRecord
100
AcDbLayerTableRecord
2
0
70
0
6
CONTINUOUS
0
ENDTAB
0
TABLE
2
STYLE
5
3
100
AcDbSymbolTable
70
1
0
STYLE
5
11
100
AcDbSymbolTableRecord
100
AcDbTextStyleTableRecord
2
STANDARD
70
0
0
ENDTAB
0
TABLE
2
VIEW
5
6
100
AcDbSymbolTable
70
0
0
ENDTAB
0
TABLE
2
UCS
5
7
100
AcDbSymbolTable
70
0
0
ENDTAB
0
TABLE
2
APPID
5
9
100
AcDbSymbolTable
70
2
0
APPID
5
12
100
AcDbSymbolTableRecord
100
AcDbRegAppTableRecord
2
ACAD
70
0
0
ENDTAB
0
TABLE
2
DIMSTYLE
5
A
100
AcDbSymbolTable
70
1
0
ENDTAB
0
TABLE
2
BLOCK_RECORD
5
1
100
AcDbSymbolTable
70
1
0
BLOCK_RECORD
5
1F
100
AcDbSymbolTableRecord
100
AcDbBlockTableRecord
2
*MODEL_SPACE
0
BLOCK_RECORD
5
1B
100
AcDbSymbolTableRecord
100
AcDbBlockTableRecord
2
*PAPER_SPACE
0
ENDTAB
0
ENDSEC
0
SECTION
2
BLOCKS
0
BLOCK
5
20
100
AcDbEntity
100
AcDbBlockBegin
2
*MODEL_SPACE
0
ENDBLK
5
21
100
AcDbEntity
100
AcDbBlockEnd
0
BLOCK
5
1C
100
AcDbEntity
100
AcDbBlockBegin
2
*PAPER_SPACE
0
ENDBLK
5
1D
100
AcDbEntity
100
AcDbBlockEnd
0
ENDSEC
0
SECTION
2
ENTITIES
0
LWPOLYLINE
5
100
100
AcDbEntity
8
0
100
AcDbPolyline
90
39
70
1
43
0.0
10
-27.331086172596031
20
-13.320999644349865
10
-25.429472923010508
20
21.822277409482083
42
0.0074365810661663149
10
-26.470445134586328
20
46.305902580538515
42
-0.0066255709011347544
10
-28.630879332555672
20
42.786046352738936
10
-27.782147262738022
20
65.306983215256992
42
0.046640883173624907
10
-54.288405840403335
20
216.36957997344965
10
-49.623656102846674
20
214.36352340699392
42
0.065665370016596183
10
-81.808437811859108
20
284.80681780491949
10
-102.45630256971401
20
271.3035350826716
42
-0.036998682184363016
10
-113.58760318336334
20
309.73802588074409
42
-0.097151434461731134
10
-36.880201648686871
20
337.47619610334226
10
-36.880201648686878
20
340.79995900273832
10
-22.282646443231062
20
340.79995900273832
10
-16.17076505172065
20
356.00512734259337
10
-12.5
20
353.46720490477981
10
-12.5
20
329.38601827672016
10
12.5
20
329.38601827672016
10
12.5
20
353.46720490477981
10
16.17076505172065
20
356.00512734259348
10
22.282646443231062
20
340.79995900273832
10
36.880201648686878
20
340.79995900273832
10
36.88020164868702
20
337.47619610334203
42
-0.097151434461731467
10
113.5876031833634
20
309.73802588074352
42
-0.036998682184362794
10
102.45630256971421
20
271.30353508267194
10
81.808437811859065
20
284.80681780491932
42
0.065665370016597169
10
49.623656102846788
20
214.36352340699364
10
54.288405840403584
20
216.36957997344922
42
0.046640883173615914
10
27.782147262738192
20
65.306983215256921
10
28.630879332555715
20
42.786046352738829
42
-0.0066255709011368638
10
26.470445134585674
20
46.305902580539552
42
0.0074365810661663149
10
25.429472923010312
20
21.822277409479575
10
27.331086172595661
20
-13.320999644349262
42
-0.0049125731553807108
10
25.142379767833063
20
-7.611927636806211
42
0.0017325162701985317
10
25.20847547999125
20
-13.320999644349882
10
31.457676903465899
20
-428.74467785248305
42
-0.057156589988910052
10
-2.2426505097428162e-13
20
-611.92579662183448
42
-0.057156589988910607
10
-31.457676903466449
20
-428.74467785248225
10
-25.20847547999125
20
-13.320999644349946
42
0.0017325162701985317
10
-25.142379767833983
20
-7.6119276368085025
42
-0.0049125731553792676
0
ARC
5
101
100
AcDbEntity
8
0
100
AcDbCircle
10
-473.38905049992252
20
-436.3390665525543
30
0
40
504.90384521177896
100
AcDbArc
50
-20.350533445440195
51
0.86183306666857618
0
ARC
5
102
100
AcDbEntity
8
0
100
AcDbCircle
10
-90.398438548048944
20
-482.80397596758883
30
0
40
96.172888744678829
100
AcDbArc
50
-19.955561396255089
51
10.553137460833046
0
ARC
5
103
100
AcDbEntity
8
0
100
AcDbCircle
10
4.8123321608401692
20
-455.10221279556197
30
0
40
10.109822786279558
100
AcDbArc
50
-93.769234570694707
51
7.1386032064874536
0
ARC
5
104
100
AcDbEntity
8
0
100
AcDbCircle
10
12.261226569819993
20
-447.20134480023404
30
0
40
7.1287635030833743
100
AcDbArc
50
162.81037984668916
51
291.23987948965271
0
ARC
5
105
100
AcDbEntity
8
0
100
AcDbCircle
10
-307.13628334055142
20
-430.95245138070766
30
0
40
312.90691996211922
100
AcDbArc
50
-2.5904138933158505
51
11.020761841653194
0
ARC
5
106
100
AcDbEntity
8
0
100
AcDbCircle
10
90.398438548047807
20
-482.80397596758883
30
0
40
96.172888744678957
100
AcDbArc
50
169.44686253916694
51
199.95556139625506
0
ARC
5
107
100
AcDbEntity
8
0
100
AcDbCircle
10
-4.8123321608413061
20
-455.10221279556197
30
0
40
10.109822786279619
100
AcDbArc
50
172.86139679351257
51
273.76923457069472
0
ARC
5
108
100
AcDbEntity
8
0
100
AcDbCircle
10
-12.26122656982113
20
-447.20134480023404
30
0
40
7.1287635030833467
100
AcDbArc
50
-111.23987948965272
51
17.189620153310855
0
ARC
5
109
100
AcDbEntity
8
0
100
AcDbCircle
10
307.13628334055028
20
-430.95245138070766
30
0
40
312.90691996211893
100
AcDbArc
50
168.97923815834679
51
182.59041389331585
0
ARC
5
110
100
AcDbEntity
8
0
100
AcDbCircle
10
473.38905049992138
20
-436.3390665525543
30
0
40
504.90384521177822
100
AcDbArc
50
179.13816693333143
51
200.35053344544019
0
ENDSEC
0
SECTION
2
OBJECTS
0
DICTIONARY
5
C
100
AcDbDictionary
3
ACAD_GROUP
350
D
3
ACAD_MLINESTYLE
350
17
0
DICTIONARY
5
D
100
AcDbDictionary
0
DICTIONARY
5
1A
330
C
100
AcDbDictionary
0
DICTIONARY
5
17
100
AcDbDictionary
0
ENDSEC
0
EOF
