0
SECTION
2
HEADER
9
$INSUNITS
70
4
9
$ACADVER
1
AC1014
9
$HANDSEED
5
FFFF
0
ENDSEC
0
SECTION
2
TABLES
0
TABLE
2
VPORT
5
8
100
AcDbSymbolTable
0
ENDTAB
0
TABLE
2
LTYPE
5
5
100
AcDbSymbolTable
0
LTYPE
5
14
100
AcDbSymbolTableRecord
100
AcDbLinetypeTableRecord
2
BYBLOCK
70
0
0
LTYPE
5
15
100
AcDbSymbolTableRecord
100
AcDbLinetypeTableRecord
2
BYLAYER
70
0
0
ENDTAB
0
TABLE
2
LAYER
5
2
100
AcDbSymbolTable
70
2
0
LAYER
5
50
100
AcDbSymbolTableRecord
100
AcDbLayerTableRecord
2
0
70
0
6
CONTINUOUS
0
ENDTAB
0
TABLE
2
STYLE
5
3
100
AcDbSymbolTable
70
1
0
STYLE
5
11
100
AcDbSymbolTableRecord
100
AcDbTextStyleTableRecord
2
STANDARD
70
0
0
ENDTAB
0
TABLE
2
VIEW
5
6
100
AcDbSymbolTable
70
0
0
ENDTAB
0
TABLE
2
UCS
5
7
100
AcDbSymbolTable
70
0
0
ENDTAB
0
TABLE
2
APPID
5
9
100
AcDbSymbolTable
70
2
0
APPID
5
12
100
AcDbSymbolTableRecord
100
AcDbRegAppTableRecord
2
ACAD
70
0
0
ENDTAB
0
TABLE
2
DIMSTYLE
5
A
100
AcDbSymbolTable
70
1
0
ENDTAB
0
TABLE
2
BLOCK_RECORD
5
1
100
AcDbSymbolTable
70
1
0
BLOCK_RECORD
5
1F
100
AcDbSymbolTableRecord
100
AcDbBlockTableRecord
2
*MODEL_SPACE
0
BLOCK_RECORD
5
1B
100
AcDbSymbolTableRecord
100
AcDbBlockTableRecord
2
*PAPER_SPACE
0
ENDTAB
0
ENDSEC
0
SECTION
2
BLOCKS
0
BLOCK
5
20
100
AcDbEntity
100
AcDbBlockBegin
2
*MODEL_SPACE
0
ENDBLK
5
21
100
AcDbEntity
100
AcDbBlockEnd
0
BLOCK
5
1C
100
AcDbEntity
100
AcDbBlockBegin
2
*PAPER_SPACE
0
ENDBLK
5
1D
100
AcDbEntity
100
AcDbBlockEnd
0
ENDSEC
0
SECTION
2
ENTITIES
0
LWPOLYLINE
5
100
100
AcDbEntity
8
0
100
AcDbPolyline
90
5
70
1
43
0.0
10
-11.239421790928334
20
286.40108114480648
42
-0.1811450563137679
10
-22.388419579266987
20
219.50709441477449
10
-50.086817509634436
20
288.7960239990399
10
-59.469797887854284
20
303.6483569008322
42
-0.34361489773260118
10
-18.201086697903577
20
299.8344892941314
0
LWPOLYLINE
5
101
100
AcDbEntity
8
0
100
AcDbPolyline
90
5
70
1
43
0.0
10
22.388419579266994
20
219.50709441477454
10
50.086817509634436
20
288.7960239990399
10
59.46979788785427
20
303.6483569008322
42
0.34361489773260079
10
18.20108669790357
20
299.8344892941314
10
11.239421790928379
20
286.40108114480643
42
0.18114505631376815
0
LWPOLYLINE
5
102
100
AcDbEntity
8
0
100
AcDbPolyline
90
36
70
1
43
0.0
10
1.7763568394002505e-14
20
317.39238991232577
42
-0.13670982060086745
10
8.909259785012587
20
306.87302825167319
42
0.13405414329755308
10
36.433782367853063
20
322.97409201797825
42
-0.10856459749324164
10
109.96898991587602
20
294.72170644210189
42
-0.022721091570183746
10
102.45630256971421
20
271.30353508267194
10
81.808437811859164
20
284.80681780491943
10
65.98134355099684
20
299.10315883209427
10
52.9582522247117
20
278.48888916598548
10
26.704160658623913
20
212.81296428416761
10
38.212803536908957
20
197.56874392804363
10
42.412523194417759
20
211.26240516134149
10
54.288405840406
20
216.36957997345945
42
0.046640883173627919
10
27.782147262738192
20
65.306983215256921
10
28.63087933256385
20
42.786046352725968
42
-0.20614099039951325
10
9.338600272109133
20
164.53090490260331
10
21.177058237387179
20
211.00482852430758
42
-0.15766543890933707
10
2.9675847221609875
20
271.29598736705731
10
3.3505987728944575
20
290.99365420073354
10
0
20
300.92002205479872
10
-3.3505987728944575
20
290.99365420073354
10
-2.9675847221609608
20
271.29598736705725
42
-0.15766543890933707
10
-21.177058237387207
20
211.00482852430756
10
-9.338600272181603
20
164.53090490213179
42
-0.20614099039951522
10
-28.630879332555672
20
42.786046352738971
10
-27.782147262738022
20
65.306983215256935
42
0.046640883173625212
10
-54.288405840403335
20
216.36957997344962
10
-42.412523194417759
20
211.26240516134149
10
-38.212803536908957
20
197.56874392804363
10
-26.704160658623913
20
212.81296428416761
10
-52.9582522247117
20
278.48888916598548
10
-65.98134355099684
20
299.10315883209427
10
-81.808437811859164
20
284.80681780491943
10
-102.4563025697144
20
271.303535082672
42
-0.022721091570183191
10
-109.96898991587608
20
294.72170644210178
42
-0.10856459749324175
10
-36.433782367853112
20
322.97409201797819
42
0.13405414329755128
10
-8.9092597850125816
20
306.87302825167319
42
-0.13670982060086859
0
ENDSEC
0
SECTION
2
OBJECTS
0
DICTIONARY
5
C
100
AcDbDictionary
3
ACAD_GROUP
350
D
3
ACAD_MLINESTYLE
350
17
0
DICTIONARY
5
D
100
AcDbDictionary
0
DICTIONARY
5
1A
330
C
100
AcDbDictionary
0
DICTIONARY
5
17
100
AcDbDictionary
0
ENDSEC
0
EOF
