0
SECTION
2
HEADER
9
$INSUNITS
70
4
9
$ACADVER
1
AC1014
9
$HANDSEED
5
FFFF
0
ENDSEC
0
SECTION
2
TABLES
0
TABLE
2
VPORT
5
8
100
AcDbSymbolTable
0
ENDTAB
0
TABLE
2
LTYPE
5
5
100
AcDbSymbolTable
0
LTYPE
5
14
100
AcDbSymbolTableRecord
100
AcDbLinetypeTableRecord
2
BYBLOCK
70
0
0
LTYPE
5
15
100
AcDbSymbolTableRecord
100
AcDbLinetypeTableRecord
2
BYLAYER
70
0
0
ENDTAB
0
TABLE
2
LAYER
5
2
100
AcDbSymbolTable
70
2
0
LAYER
5
50
100
AcDbSymbolTableRecord
100
AcDbLayerTableRecord
2
0
70
0
6
CONTINUOUS
0
ENDTAB
0
TABLE
2
STYLE
5
3
100
AcDbSymbolTable
70
1
0
STYLE
5
11
100
AcDbSymbolTableRecord
100
AcDbTextStyleTableRecord
2
STANDARD
70
0
0
ENDTAB
0
TABLE
2
VIEW
5
6
100
AcDbSymbolTable
70
0
0
ENDTAB
0
TABLE
2
UCS
5
7
100
AcDbSymbolTable
70
0
0
ENDTAB
0
TABLE
2
APPID
5
9
100
AcDbSymbolTable
70
2
0
APPID
5
12
100
AcDbSymbolTableRecord
100
AcDbRegAppTableRecord
2
ACAD
70
0
0
ENDTAB
0
TABLE
2
DIMSTYLE
5
A
100
AcDbSymbolTable
70
1
0
ENDTAB
0
TABLE
2
BLOCK_RECORD
5
1
100
AcDbSymbolTable
70
1
0
BLOCK_RECORD
5
1F
100
AcDbSymbolTableRecord
100
AcDbBlockTableRecord
2
*MODEL_SPACE
0
BLOCK_RECORD
5
1B
100
AcDbSymbolTableRecord
100
AcDbBlockTableRecord
2
*PAPER_SPACE
0
ENDTAB
0
ENDSEC
0
SECTION
2
BLOCKS
0
BLOCK
5
20
100
AcDbEntity
100
AcDbBlockBegin
2
*MODEL_SPACE
0
ENDBLK
5
21
100
AcDbEntity
100
AcDbBlockEnd
0
BLOCK
5
1C
100
AcDbEntity
100
AcDbBlockBegin
2
*PAPER_SPACE
0
ENDBLK
5
1D
100
AcDbEntity
100
AcDbBlockEnd
0
ENDSEC
0
SECTION
2
ENTITIES
0
ARC
5
100
100
AcDbEntity
8
0
100
AcDbCircle
10
-160.35815026000353
20
-126.06118994976583
30
0
40
155.84230313717359
100
AcDbArc
50
-14.291205471611969
51
32.300192590917959
0
ARC
5
101
100
AcDbEntity
8
0
100
AcDbCircle
10
-848.98513277731627
20
0.92896103545023756
30
0
40
823.86985849030725
100
AcDbArc
50
-15.29289744292638
51
0.86183306666815318
0
LINE
5
102
100
AcDbEntity
8
0
100
AcDbLine
10
-28.630879332555672
20
-42.786046352738978
30
0
11
-27.782147262738448
21
-65.306983215256452
31
0
0
ARC
5
103
100
AcDbEntity
8
0
100
AcDbCircle
10
-316.76341052789923
20
-100.91373949659726
30
0
40
311.16016134510642
100
AcDbArc
50
-1.1506925468672875
51
21.538430329882036
0
LINE
5
104
100
AcDbEntity
8
0
100
AcDbLine
10
-27.331086172596081
20
13.320999644349847
30
0
11
-25.429472923010429
21
-21.822277409482069
31
0
0
ARC
5
105
100
AcDbEntity
8
0
100
AcDbCircle
10
782.87849993509667
20
383.19047148571485
30
0
40
815.60933946697469
100
AcDbArc
50
163.71310541901966
51
176.79819420220946
0
LINE
5
106
100
AcDbEntity
8
0
100
AcDbLine
10
-31.457676903466396
20
428.74467785248225
30
0
11
-25.20847547999125
21
13.320999644349847
31
0
0
LINE
5
107
100
AcDbEntity
8
0
100
AcDbLine
10
-25.20847547999125
20
13.320999644349847
30
0
11
-25.142379767833276
21
7.6119276368063105
31
0
0
LINE
5
108
100
AcDbEntity
8
0
100
AcDbLine
10
-54.2884058404033
20
-216.36957997344928
30
0
11
-49.623656102846795
21
-214.36352340699372
31
0
0
ARC
5
109
100
AcDbEntity
8
0
100
AcDbCircle
10
-332.75005233807519
20
-127.58021263915765
30
0
40
296.12818047760061
100
AcDbArc
50
327.93094057828154
51
342.95875991801444
0
LINE
5
110
100
AcDbEntity
8
0
100
AcDbLine
10
-81.808437811859164
20
-284.80681780491943
30
0
11
-102.45630256971418
21
-271.30353508267194
31
0
0
LINE
5
111
100
AcDbEntity
8
0
100
AcDbLine
10
-81.808437811859164
20
-284.80681780491943
30
0
11
-102.45630256971418
21
-271.30353508267194
31
0
0
ARC
5
112
100
AcDbEntity
8
0
100
AcDbCircle
10
151.32429584197027
20
-365.63198912695896
30
0
40
270.74425085784435
100
AcDbArc
50
159.61025561989172
51
168.08586295084655
0
ARC
5
113
100
AcDbEntity
8
0
100
AcDbCircle
10
-4.5289087244290727
20
-128.07884441628141
30
0
40
211.88170531555011
100
AcDbArc
50
239.02159211596077
51
261.21740468881643
0
LINE
5
114
100
AcDbEntity
8
0
100
AcDbLine
10
-36.880201648686878
20
-340.79995900273832
30
0
11
-22.282646443231062
21
-340.79995900273832
31
0
0
LINE
5
115
100
AcDbEntity
8
0
100
AcDbLine
10
-36.880201648686878
20
-337.47619610334226
30
0
11
-36.880201648686878
21
-340.79995900273832
31
0
0
LINE
5
116
100
AcDbEntity
8
0
100
AcDbLine
10
-36.880201648686878
20
-340.79995900273832
30
0
11
-22.282646443231062
21
-340.79995900273832
31
0
0
LINE
5
117
100
AcDbEntity
8
0
100
AcDbLine
10
-22.282646443231062
20
-340.79995900273832
30
0
11
-16.17076505172065
21
-356.00512734259348
31
0
0
LINE
5
118
100
AcDbEntity
8
0
100
AcDbLine
10
-22.282646443231062
20
-340.79995900273832
30
0
11
-16.17076505172065
21
-356.00512734259348
31
0
0
LINE
5
119
100
AcDbEntity
8
0
100
AcDbLine
10
-16.17076505172065
20
-356.00512734259348
30
0
11
0
21
-344.82485650446461
31
0
0
LINE
5
120
100
AcDbEntity
8
0
100
AcDbLine
10
-12.5
20
-329.38601827672016
30
0
11
-12.5
21
-353.46720490477981
31
0
0
LINE
5
121
100
AcDbEntity
8
0
100
AcDbLine
10
0
20
-329.38601827672016
30
0
11
-12.5
21
-329.38601827672016
31
0
0
LINE
5
122
100
AcDbEntity
8
0
100
AcDbLine
10
-12.5
20
-329.38601827672016
30
0
11
-12.5
21
-353.46720490477981
31
0
0
ARC
5
123
100
AcDbEntity
8
0
100
AcDbCircle
10
-848.98513277725999
20
0.928961035441489
30
0
40
823.86985849025052
100
AcDbArc
50
344.7071025570732
51
355.38866462258937
0
ARC
5
124
100
AcDbEntity
8
0
100
AcDbCircle
10
-848.98513277725999
20
0.928961035441489
30
0
40
823.86985849025098
100
AcDbArc
50
356.71326343285034
51
358.41757085208457
0
LINE
5
125
100
AcDbEntity
8
0
100
AcDbLine
10
0
20
611.92579662183346
30
0
11
0
21
758.85637991567819
31
0
0
LINE
5
126
100
AcDbEntity
8
0
100
AcDbLine
10
81.808437811859164
20
-284.80681780491932
30
0
11
102.45630256971418
21
-271.30353508267194
31
0
0
LINE
5
127
100
AcDbEntity
8
0
100
AcDbLine
10
81.808437811859164
20
-284.80681780491932
30
0
11
102.45630256971418
21
-271.30353508267194
31
0
0
ARC
5
128
100
AcDbEntity
8
0
100
AcDbCircle
10
332.75005233807519
20
-127.58021263915765
30
0
40
296.12818047760061
100
AcDbArc
50
197.04124008198556
51
212.06905942171849
0
LINE
5
129
100
AcDbEntity
8
0
100
AcDbLine
10
28.630879332555672
20
-42.786046352738936
30
0
11
27.782147262738448
21
-65.30698321525648
31
0
0
LINE
5
130
100
AcDbEntity
8
0
100
AcDbLine
10
36.880201648686878
20
-340.79995900273832
30
0
11
22.282646443231062
21
-340.79995900273832
31
0
0
LINE
5
131
100
AcDbEntity
8
0
100
AcDbLine
10
25.20847547999125
20
13.320999644349882
30
0
11
25.142379767833276
21
7.6119276368063282
31
0
0
LINE
5
132
100
AcDbEntity
8
0
100
AcDbLine
10
27.331086172596081
20
13.320999644349882
30
0
11
25.429472923010429
21
-21.822277409482069
31
0
0
ARC
5
133
100
AcDbEntity
8
0
100
AcDbCircle
10
160.35815026000353
20
-126.06118994976583
30
0
40
155.84230313717359
100
AcDbArc
50
147.69980740908201
51
194.2912054716119
0
ARC
5
134
100
AcDbEntity
8
0
100
AcDbCircle
10
848.98513277725999
20
0.928961035441489
30
0
40
823.86985849025109
100
AcDbArc
50
181.58242914791541
51
183.28673656714963
0
ARC
5
135
100
AcDbEntity
8
0
100
AcDbCircle
10
848.98513277725999
20
0.928961035441489
30
0
40
823.86985849025018
100
AcDbArc
50
184.61133537741063
51
195.29289744292677
0
ARC
5
136
100
AcDbEntity
8
0
100
AcDbCircle
10
316.76341052789923
20
-100.91373949659726
30
0
40
311.16016134510801
100
AcDbArc
50
158.46156967011797
51
181.1506925468673
0
LINE
5
137
100
AcDbEntity
8
0
100
AcDbLine
10
54.2884058404033
20
-216.36957997344936
30
0
11
49.623656102846795
21
-214.36352340699372
31
0
0
LINE
5
138
100
AcDbEntity
8
0
100
AcDbLine
10
36.880201648686878
20
-340.79995900273832
30
0
11
22.282646443231062
21
-340.79995900273832
31
0
0
LINE
5
139
100
AcDbEntity
8
0
100
AcDbLine
10
22.282646443231062
20
-340.79995900273832
30
0
11
16.17076505172065
21
-356.00512734259337
31
0
0
LINE
5
140
100
AcDbEntity
8
0
100
AcDbLine
10
22.282646443231062
20
-340.79995900273832
30
0
11
16.17076505172065
21
-356.00512734259337
31
0
0
LINE
5
141
100
AcDbEntity
8
0
100
AcDbLine
10
16.17076505172065
20
-356.00512734259337
30
0
11
0
21
-344.82485650446461
31
0
0
LINE
5
142
100
AcDbEntity
8
0
100
AcDbLine
10
12.5
20
-329.38601827672016
30
0
11
12.5
21
-353.46720490477981
31
0
0
LINE
5
143
100
AcDbEntity
8
0
100
AcDbLine
10
0
20
-329.38601827672016
30
0
11
12.5
21
-329.38601827672016
31
0
0
LINE
5
144
100
AcDbEntity
8
0
100
AcDbLine
10
12.5
20
-329.38601827672016
30
0
11
12.5
21
-353.46720490477981
31
0
0
LINE
5
145
100
AcDbEntity
8
0
100
AcDbLine
10
36.880201648686878
20
-337.47619610334226
30
0
11
36.880201648686878
21
-340.79995900273832
31
0
0
ARC
5
146
100
AcDbEntity
8
0
100
AcDbCircle
10
848.98513277731627
20
0.92896103545022868
30
0
40
823.86985849030725
100
AcDbArc
50
179.13816693333186
51
195.29289744292635
0
LINE
5
147
100
AcDbEntity
8
0
100
AcDbLine
10
31.457676903466396
20
428.74467785248225
30
0
11
25.20847547999125
21
13.320999644349882
31
0
0
ARC
5
148
100
AcDbEntity
8
0
100
AcDbCircle
10
4.5289087244290727
20
-128.07884441628133
30
0
40
211.88170531555056
100
AcDbArc
50
278.78259531118363
51
300.97840788403914
0
ARC
5
149
100
AcDbEntity
8
0
100
AcDbCircle
10
-151.32429584197027
20
-365.63198912695896
30
0
40
270.7442508578489
100
AcDbArc
50
11.91413704915346
51
20.38974438010829
0
ARC
5
150
100
AcDbEntity
8
0
100
AcDbCircle
10
-782.87849993509667
20
383.19047148571485
30
0
40
815.60933946697401
100
AcDbArc
50
3.2018057977905645
51
16.286894580980348
0
ENDSEC
0
SECTION
2
OBJECTS
0
DICTIONARY
5
C
100
AcDbDictionary
3
ACAD_GROUP
350
D
3
ACAD_MLINESTYLE
350
17
0
DICTIONARY
5
D
100
AcDbDictionary
0
DICTIONARY
5
1A
330
C
100
AcDbDictionary
0
DICTIONARY
5
17
100
AcDbDictionary
0
ENDSEC
0
EOF
